Coordinates
version=1
nRows=11
nColumns=36
inDegrees=yes

Units are S.I. units (second, meters, Newtons, ...)
If the header above contains a line with 'inDegrees', this indicates whether rotational values are in degrees (yes) or radians (no).

endheader
time	pelvis_tilt	pelvis_list	pelvis_rotation	pelvis_tx	pelvis_ty	pelvis_tz	hip_flexion_r	hip_adduction_r	hip_rotation_r	knee_angle_r	knee_angle_r_beta	ankle_angle_r	subtalar_angle_r	mtp_angle_r	hip_flexion_l	hip_adduction_l	hip_rotation_l	knee_angle_l	knee_angle_l_beta	ankle_angle_l	subtalar_angle_l	mtp_angle_l	lumbar_extension	lumbar_bending	lumbar_rotation	arm_flex_r	arm_add_r	arm_rot_r	elbow_flex_r	pro_sup_r	arm_flex_l	arm_add_l	arm_rot_l	elbow_flex_l	pro_sup_l
      0.45000000	     -1.16220860	     -6.02111801	      1.05212897	      0.34821737	      0.93663919	     -0.19468956	     -6.94830821	     10.19598053	      0.85060962	      2.41508386	      0.04215117	      8.54239119	     -1.65958622	     -6.81403676	     28.11455888	     -2.49866556	      9.83950868	     39.77036333	      0.69412378	     -1.00320479	    -26.77343869	     -6.81403676	    -12.94393136	     22.05966454	     -3.98784761	     -6.30319594	    -11.48019084	    -21.87765655	     42.61006328	     99.70083590	    -10.32816782	     -5.23856640	     -7.14905462	     54.08485300	    101.75505703
      0.46000000	     -1.29460665	     -6.15277642	      1.05633762	      0.35626333	      0.93566546	     -0.19385618	     -7.42552360	     10.38358486	      0.88926097	      2.32087182	      0.04050685	      8.67026632	     -1.54700885	     -6.81838966	     28.71400974	     -2.61330937	      9.84031836	     37.00185141	      0.64580414	     -1.07056868	    -25.89493123	     -6.81838966	    -12.61723147	     21.72308310	     -3.64517454	     -6.21536081	    -11.46746345	    -21.70452138	     42.75852283	     99.69534401	    -10.80859410	     -5.29873187	     -7.34814039	     53.80872585	    101.73439342
      0.47000000	     -1.03661315	     -6.01157358	      1.01603513	      0.36452382	      0.93521867	     -0.19286197	     -8.35463546	     10.25830307	      0.80260896	      2.22169111	      0.03877582	      9.25096273	     -0.81822797	     -6.85520778	     28.67856399	     -2.60159906	      9.43017332	     34.00622214	      0.59352054	      0.08619212	    -22.96142850	     -6.85520778	    -12.73981823	     20.99542930	     -3.34816032	     -5.90278691	    -11.48947563	    -20.80849668	     42.51703446	     99.49009663	    -11.15772193	     -5.28900096	     -8.09125360	     53.24395909	    101.80548915
      0.48000000	     -1.03222112	     -5.99197377	      0.98931216	      0.37280655	      0.93433526	     -0.19194106	     -8.97118110	     10.27897259	      0.82590834	      2.18243476	      0.03809067	      9.49963059	     -0.75665522	     -6.86462724	     28.85348047	     -2.63556754	      9.14774864	     30.90362061	      0.53936993	      0.00591469	    -21.43519503	     -6.86462724	    -12.54559287	     20.43542089	     -2.94053355	     -5.81633443	    -11.41386815	    -20.62033768	     42.58075245	     99.44649753	    -11.51635280	     -5.31501645	     -8.51461947	     52.72011959	    101.77160709
      0.49000000	     -0.91714272	     -6.03374405	      0.92197724	      0.38123947	      0.93344909	     -0.19084032	     -9.68828629	     10.36328875	      0.79888857	      2.21342893	      0.03863162	      9.94527367	     -0.23569073	     -6.90487100	     28.86809377	     -2.85715528	      8.49902998	     27.87036180	      0.48642958	      1.41447532	    -18.12443517	     -6.90487100	    -12.48813836	     19.89133415	     -2.59107705	     -5.57747844	    -11.37856795	    -20.12666814	     42.43309988	     99.21492759	    -11.97134755	     -5.28723374	     -9.22048222	     52.28527010	    101.93274869
      0.50000000	     -0.82949444	     -6.00886208	      0.79987033	      0.38970691	      0.93249416	     -0.18972819	    -10.37802406	     10.36869462	      0.90097343	      2.22953141	      0.03891266	     10.20168952	     -0.08116249	     -6.92659603	     28.77475992	     -2.99056956	      7.77527609	     24.67363422	      0.43063616	      1.84073581	    -15.93003372	     -6.92659603	    -12.42599480	     19.26806454	     -2.07832603	     -5.42546374	    -11.28463421	    -19.92572002	     42.37562482	     99.10320432	    -12.29602113	     -5.29169381	     -9.76765634	     51.70110461	    101.99331590
      0.51000000	     -0.77594591	     -6.00654753	      0.65324033	      0.39831899	      0.93136969	     -0.18859325	    -11.02096264	     10.39415324	      0.98303073	      2.28211405	      0.03983040	     10.48866000	      0.12243432	     -6.95192516	     28.67955147	     -3.17676478	      6.78344929	     21.55660482	      0.37623373	      2.69823700	    -13.10705249	     -6.95192516	    -12.30911752	     18.65252199	     -1.57255832	     -5.26549815	    -11.19773781	    -19.70812206	     42.29458834	     98.98234989	    -12.67937933	     -5.27778818	    -10.36016660	     51.19500645	    102.12817800
      0.52000000	     -0.92388618	     -6.01228297	      0.49534188	      0.40695826	      0.92991736	     -0.18752955	    -11.40086541	     10.41910485	      1.12412103	      2.44197466	      0.04262050	     10.62974878	      0.11200690	     -6.95746407	     28.70283614	     -3.25572767	      6.08573381	     18.39817827	      0.32110879	      2.71653174	    -11.59355643	     -6.95746407	    -11.94678412	     18.04726871	     -1.06738948	     -5.21498667	    -11.05849252	    -19.61166794	     42.32988577	     98.96615966	    -13.10697967	     -5.31723192	    -10.74298459	     50.72884502	    102.11441770
      0.53000000	     -0.93494490	     -5.96754171	      0.29271972	      0.41576042	      0.92858218	     -0.18646928	    -11.95913144	     10.37480220	      1.24571980	      2.55309728	      0.04455995	     10.80463707	      0.16856480	     -6.96261877	     28.51342796	     -3.32294712	      5.04444223	     15.33687648	      0.26767899	      2.96254263	     -9.78411869	     -6.96261877	    -11.74320846	     17.37532213	     -0.51424297	     -5.10011774	    -10.95702806	    -19.53687185	     42.27961713	     98.94313790	    -13.47485598	     -5.32057058	    -11.20166297	     50.15220818	    102.09387132
      0.54000000	     -0.56372955	     -5.91919385	      0.07271373	      0.42492623	      0.92761186	     -0.18518626	    -12.99727456	     10.31445915	      1.16361579	      2.58570289	      0.04512903	     11.32778308	      0.77709611	     -6.99629157	     28.11137583	     -3.58493013	      2.63536867	     12.97074756	      0.22638225	      5.22575551	     -4.38491972	     -6.99629157	    -11.98538111	     16.63123716	      0.06214885	     -4.83897355	    -10.81581385	    -19.26273841	     41.95653618	     98.76401899	    -13.82551008	     -5.26643047	    -12.13847119	     49.59007277	    102.51788317
      0.55000000	     -0.63354808	     -5.81763676	     -0.14423365	      0.43398890	      0.92611206	     -0.18420787	    -13.49178585	     10.18057440	      1.25019317	      2.73072925	      0.04766022	     11.42039068	      0.84472230	     -7.00183656	     27.92532656	     -3.48071498	      1.73658028	     10.31956241	      0.18011034	      5.35966011	     -3.02438061	     -7.00183656	    -11.69422989	     15.87396752	      0.62037528	     -4.76484694	    -10.65359246	    -19.19797514	     41.88224003	     98.73507936	    -14.20423299	     -5.30269428	    -12.54226576	     48.98969432	    102.52273960
